<svg width="297" height="297" viewBox="0 0 297 297" fill="none" xmlns="http://www.w3.org/2000/svg">
<rect width="297" height="297" rx="148.5" fill="#24242B"/>
<mask id="mask0_218_23" style="mask-type:luminance" maskUnits="userSpaceOnUse" x="66" y="60" width="165" height="177">
<path d="M230.91 60H66V237H230.91V60Z" fill="white"/>
</mask>
<g mask="url(#mask0_218_23)">
<path d="M83.2988 60C73.7342 60 65.9961 68.0328 65.9961 77.9604V219.024C65.9961 228.952 73.7343 236.984 83.2988 236.984H179.597C207.725 236.984 230.897 212.932 230.897 183.736C230.897 170.288 225.941 157.878 217.855 148.492C225.941 139.061 230.897 126.696 230.897 113.249C230.897 84.0521 207.725 60 179.597 60H83.2988Z" fill="#38B6FF"/>
</g>
<path d="M144.643 95.332C115.993 95.332 91.603 118.933 91.603 148.626C91.603 178.319 116.036 201.92 144.643 201.92C144.686 201.92 144.686 201.92 144.73 201.92L179.249 201.74C188.814 201.694 196.509 193.617 196.465 183.689C196.422 173.761 188.64 165.774 179.075 165.819L144.643 166C133.687 166 126.209 158.102 126.209 148.671C126.209 139.24 133.687 131.343 144.643 131.343H179.119C188.683 131.343 196.422 123.31 196.422 113.383C196.422 103.455 188.683 95.4224 179.119 95.4224H144.643L144.643 95.332Z" fill="white"/>
</svg>
