<svg width="500" height="500" viewBox="0 0 500 500" fill="none" xmlns="http://www.w3.org/2000/svg">
<path d="M0 250C0 388.071 111.929 500 250 500C388.071 500 500 388.071 500 250C500 111.929 388.071 0 250 0C111.929 0 0 111.929 0 250Z" fill="white"/>
<path d="M158.86 336.28H72V249.42H158.86V336.28Z" fill="#1D8EA7"/>
<path d="M427.86 249.42H341V162.56H427.86V249.42Z" fill="#1D8EA7"/>
<path d="M158.86 249.42V156C228.52 157.71 257.44 177.46 270.64 196.4C279.14 208.6 289.32 232.24 315.08 243.54C325.2 247.97 334.6 249.14 341 249.42V341.17C291.77 347.78 265.23 336.33 249.93 323.66C230.7 307.75 224.11 285.66 192.74 265.42C179.58 256.92 167.32 252.15 158.86 249.42Z" fill="#1D8EA7"/>
</svg>
